<svg width="102" height="70" viewBox="0 0 102 70" fill="none" xmlns="http://www.w3.org/2000/svg">
<path d="M100.453 32.9001C100.418 32.8035 100.369 32.7084 100.308 32.622C100.247 32.5341 100.176 32.4548 100.096 32.3871C100.018 32.3208 99.9308 32.266 99.8408 32.23L58.4225 15.463C58.3616 15.4379 58.3006 15.4059 58.2382 15.3661C58.1758 15.3264 58.1119 15.2787 58.0466 15.222C57.9813 15.1654 57.9145 15.1001 57.8448 15.025C57.7766 14.9499 57.7055 14.8651 57.6315 14.7697C57.5226 14.6277 57.4108 14.4626 57.2991 14.2768C57.1873 14.0911 57.0755 13.8847 56.9652 13.6605C56.8549 13.4362 56.746 13.1941 56.6415 12.9367C56.5356 12.6792 56.4354 12.4067 56.3411 12.1215C56.2453 11.8359 56.1553 11.5379 56.0711 11.2301C55.9869 10.9221 55.91 10.6041 55.8403 10.2787C55.7706 9.95298 55.7097 9.6198 55.656 9.28158C55.6037 8.94292 55.5602 8.59923 55.5253 8.25293C55.4803 7.79063 55.4542 7.3462 55.447 6.9244C55.4412 6.50173 55.4513 6.10154 55.4803 5.72815C55.5079 5.35419 55.5544 5.00718 55.6139 4.69158C55.6748 4.37555 55.7503 4.09093 55.8389 3.84249C55.8824 3.71827 55.9289 3.60327 55.9797 3.49778C56.029 3.3923 56.0813 3.29632 56.1364 3.21014C56.1916 3.12382 56.2482 3.04744 56.3062 2.98115C56.3643 2.91486 56.4238 2.85852 56.4833 2.81255C56.4949 2.80433 56.5051 2.79641 56.5167 2.78877C56.5283 2.78113 56.5385 2.77378 56.5501 2.76701C56.5603 2.75995 56.5704 2.75332 56.582 2.74698C56.5936 2.74064 56.6038 2.73459 56.614 2.72882C38.6953 12.2349 20.7767 21.7396 2.85802 31.245C2.84888 31.2508 2.83973 31.2551 2.83044 31.2609C2.82115 31.2666 2.81201 31.2724 2.80286 31.2796C2.79372 31.2854 2.78458 31.2911 2.77543 31.2983C2.76643 31.3055 2.75729 31.3127 2.74814 31.32C2.69821 31.3617 2.65017 31.4151 2.60474 31.4799C2.5593 31.5433 2.51634 31.6183 2.47642 31.7033C2.43665 31.7883 2.39979 31.8849 2.36655 31.9915C2.33331 32.0967 2.3037 32.2134 2.2783 32.3402C2.22677 32.5939 2.19164 32.8864 2.17437 33.2135C2.15695 33.5407 2.15724 33.9024 2.17611 34.2944C2.19498 34.6863 2.23257 35.1071 2.28976 35.5539C2.34695 36.0006 2.42388 36.4718 2.52157 36.9647C2.59428 37.335 2.676 37.7011 2.76513 38.0642C2.85425 38.4274 2.95077 38.7848 3.05368 39.1364C3.15645 39.4866 3.26531 39.831 3.37911 40.1639C3.49276 40.4982 3.61149 40.8225 3.73356 41.1337C3.8549 41.445 3.98031 41.7433 4.10732 42.0258C4.23432 42.3082 4.36293 42.5748 4.49109 42.8241C4.61926 43.072 4.74699 43.3011 4.87182 43.5101C4.99679 43.7176 5.11901 43.9035 5.23629 44.0664C5.31525 44.1744 5.39058 44.2724 5.46301 44.3589C5.53544 44.4454 5.60482 44.5217 5.67159 44.588C5.73836 44.6558 5.8028 44.712 5.86507 44.761C5.92734 44.81 5.98743 44.8503 6.04607 44.8834L46.6472 67.4739C46.7372 67.5243 46.8242 67.5921 46.907 67.6728C46.9897 67.7549 47.0666 67.8486 47.1334 67.948C47.2002 68.0474 47.2582 68.1541 47.3018 68.2622C47.3468 68.3688 47.3773 68.4769 47.3889 68.5792C47.3961 68.6311 47.3976 68.6786 47.3947 68.7233C47.3918 68.7666 47.386 68.8055 47.3744 68.8415C47.3627 68.8775 47.3482 68.9078 47.3294 68.9337C47.3105 68.9611 47.2887 68.9827 47.264 69C64.9519 57.2033 82.6412 45.4066 100.331 33.6098C100.36 33.5911 100.386 33.5666 100.409 33.5392C100.431 33.5118 100.451 33.4801 100.467 33.4456C100.481 33.4095 100.495 33.3706 100.502 33.3288C100.509 33.287 100.513 33.2409 100.512 33.1934C100.511 33.0968 100.489 32.9974 100.454 32.8994L100.453 32.9001Z" fill="#5FAC87" stroke="#5FAC87" stroke-width="2"/>
<path d="M43.9625 57.9247C44.0365 58.5114 44.1352 59.0951 44.2527 59.6731C44.3716 60.2511 44.5094 60.8204 44.6661 61.3796C44.8228 61.9359 44.9968 62.4821 45.1869 63.0095C45.3754 63.5369 45.5814 64.0469 45.8005 64.5353C45.8657 64.6784 45.931 64.8185 45.9978 64.9572C46.063 65.096 46.1312 65.2332 46.2008 65.3676C46.2705 65.502 46.3401 65.6349 46.4112 65.765C46.4837 65.8965 46.5562 66.0251 46.6302 66.1508L6.95887 44.1689C6.89925 44.1356 6.83876 44.0952 6.7761 44.0461C6.71343 43.9969 6.64888 43.9406 6.58171 43.8727C6.51455 43.8047 6.44492 43.7296 6.37225 43.6415C6.29957 43.5548 6.22399 43.4565 6.14479 43.3467C6.027 43.1849 5.90457 42.997 5.77924 42.7875C5.6539 42.5794 5.5261 42.3482 5.39772 42.0983C5.26935 41.8483 5.14068 41.5795 5.0136 41.2949C4.88653 41.0102 4.76134 40.7111 4.63992 40.3976C4.51793 40.084 4.39956 39.7589 4.28612 39.4222C4.17254 39.087 4.06403 38.7402 3.96176 38.3877C3.85935 38.0351 3.76332 37.6739 3.67469 37.3097C3.5862 36.9442 3.50511 36.5743 3.43316 36.2029C3.3364 35.7073 3.26068 35.2319 3.20469 34.7825C3.14855 34.3317 3.11228 33.9083 3.09473 33.5139C3.07703 33.1194 3.0782 32.7538 3.09705 32.4244C3.11577 32.0949 3.15218 31.8002 3.20527 31.5444C3.23138 31.4173 3.2617 31.3002 3.29564 31.1919C3.32959 31.0849 3.36716 30.9881 3.40763 30.9029C3.44825 30.8162 3.49191 30.741 3.53789 30.676C3.58402 30.6124 3.63262 30.5575 3.6831 30.5156C3.73445 30.4723 3.78667 30.4405 3.83977 30.4188C3.89286 30.3957 3.94682 30.3841 4.0018 30.3812C4.05692 30.3784 4.11306 30.3841 4.17022 30.3986C4.22752 30.413 4.28597 30.4362 4.34589 30.4665L44.7948 51.3878C44.6961 51.5034 44.6062 51.6349 44.5249 51.7808C44.4423 51.9253 44.3668 52.0843 44.2986 52.2548C44.2319 52.4253 44.171 52.6088 44.1159 52.8038C44.0622 52.9989 44.0158 53.2055 43.9737 53.4237C43.9186 53.7243 43.8765 54.0465 43.8475 54.3875C43.8185 54.7285 43.8025 55.0883 43.8011 55.4654C43.7982 55.8426 43.8112 56.237 43.8374 56.6474C43.8649 57.0577 43.9055 57.484 43.9621 57.9247H43.9625Z" fill="#3F973E"/>
<path d="M43.9625 57.9247C44.0365 58.5113 44.1352 59.0951 44.2527 59.6731C44.3716 60.251 44.5094 60.8203 44.6661 61.3795C44.8228 61.9358 44.9968 62.482 45.1869 63.0094C45.3754 63.5368 45.5814 64.0469 45.8005 64.5353C45.8657 64.6783 45.931 64.8185 45.9978 64.9572C46.063 65.0959 46.1312 65.2332 46.2008 65.3676C46.2705 65.502 46.3401 65.6349 46.4112 65.7649C46.4837 65.8964 46.5562 66.025 46.6302 66.1507L6.95887 44.1688C6.89925 44.1356 6.83876 44.0952 6.7761 44.046C6.71343 43.9969 6.64888 43.9405 6.58171 43.8726C6.51455 43.8047 6.44492 43.7296 6.37225 43.6414C6.29957 43.5547 6.22399 43.4565 6.14479 43.3467C6.027 43.1848 5.90457 42.997 5.77924 42.7875C5.6539 42.5794 5.5261 42.3482 5.39772 42.0982C5.26935 41.8483 5.14068 41.5795 5.0136 41.2949C4.88653 41.0102 4.76134 40.7111 4.63992 40.3975C4.51793 40.084 4.39956 39.7589 4.28612 39.4222C4.17254 39.087 4.06403 38.7402 3.96176 38.3876C3.85935 38.0351 3.76332 37.6738 3.67469 37.3097C3.5862 36.9441 3.50511 36.5742 3.43316 36.2029C3.3364 35.7073 3.26068 35.2319 3.20469 34.7825C3.14855 34.3317 3.11228 33.9083 3.09473 33.5138C3.07703 33.1194 3.0782 32.7538 3.09705 32.4244C3.11577 32.0949 3.15218 31.8001 3.20527 31.5444C3.23138 31.4172 3.2617 31.3002 3.29564 31.1918C3.32959 31.0849 3.36716 30.9881 3.40763 30.9028C3.44825 30.8161 3.49191 30.741 3.53789 30.676C3.58402 30.6124 3.63262 30.5575 3.6831 30.5156C3.73445 30.4722 3.78667 30.4405 3.83977 30.4188C3.89286 30.3957 3.94682 30.3841 4.0018 30.3812C4.05692 30.3783 4.11306 30.3841 4.17022 30.3986C4.22752 30.413 4.28597 30.4361 4.34589 30.4665L44.7948 51.3878C44.6961 51.5034 44.6062 51.6349 44.5249 51.7808C44.4423 51.9253 44.3668 52.0842 44.2986 52.2547C44.2319 52.4252 44.171 52.6087 44.1159 52.8038C44.0622 52.9989 44.0158 53.2055 43.9737 53.4237C43.9186 53.7242 43.8765 54.0465 43.8475 54.3875C43.8185 54.7285 43.8025 55.0883 43.8011 55.4654C43.7982 55.8425 43.8112 56.237 43.8374 56.6474C43.8649 57.0577 43.9055 57.484 43.9621 57.9247H43.9625Z" fill="white"/>
<path d="M55.7763 3.04932C55.724 3.03039 55.6747 3.01623 55.624 3.00756C55.5732 2.99889 55.5239 2.99543 55.4745 2.99774C55.4238 3.00005 55.3745 3.008 55.3237 3.02216C55.2744 3.03632 55.225 3.0564 55.1743 3.08313C38.0469 12.2023 20.921 21.3212 3.79358 30.4402C3.83724 30.4171 3.88105 30.4012 3.92544 30.3911C3.96997 30.381 4.01509 30.3781 4.06093 30.381C4.10677 30.3838 4.15348 30.3925 4.20091 30.407C4.24835 30.4214 4.29665 30.4402 4.34583 30.4662L44.7947 51.3875L97.069 18.5975L55.7758 3.04846L55.7763 3.04932Z" fill="#3F973E"/>
<path d="M97.2622 32.1282C97.1999 32.0126 97.1389 31.8941 97.0794 31.7727C97.02 31.6513 96.9619 31.5285 96.9068 31.4043C96.8503 31.28 96.7951 31.1528 96.7415 31.0228C96.5601 30.5821 96.3948 30.1183 96.2497 29.6356C96.1032 29.153 95.9755 28.6531 95.8682 28.1387C95.7608 27.6228 95.6738 27.094 95.61 26.5565C95.5462 26.0175 95.5041 25.4713 95.4867 24.9194C95.4736 24.5061 95.4751 24.1044 95.491 23.7157C95.5055 23.327 95.536 22.9528 95.5781 22.593C95.6201 22.2318 95.6753 21.8879 95.742 21.5599C95.8102 21.2319 95.8899 20.9198 95.9813 20.6279C96.0466 20.4155 96.1191 20.2146 96.1975 20.0225C96.2758 19.8303 96.3599 19.6482 96.4499 19.4777C96.5413 19.3072 96.637 19.1483 96.74 19.0009C96.843 18.8549 96.9532 18.7191 97.0693 18.5977L44.7936 51.3878C44.6964 51.5034 44.6065 51.6349 44.5252 51.7794C44.4425 51.9253 44.3671 52.0828 44.2989 52.2548C44.2307 52.4253 44.1713 52.6088 44.1161 52.8038C44.0625 52.9989 44.0146 53.2055 43.974 53.4237C43.9189 53.7243 43.8768 54.0465 43.8478 54.3875C43.8173 54.727 43.8028 55.0883 43.7999 55.4654C43.7985 55.8425 43.8115 56.237 43.8376 56.6474C43.8637 57.0577 43.9058 57.484 43.9624 57.9247C44.0364 58.5113 44.135 59.0951 44.2525 59.6731C44.3715 60.2511 44.5093 60.8204 44.6659 61.3796C44.8226 61.9359 44.9967 62.482 45.1867 63.0094C45.3753 63.5368 45.5813 64.0469 45.8003 64.5353C45.8656 64.6783 45.9309 64.8185 45.9961 64.9572C46.0629 65.0959 46.131 65.2332 46.2007 65.3676C46.2689 65.502 46.3399 65.6349 46.411 65.7649C46.4835 65.8964 46.5561 66.025 46.6301 66.1507L97.4537 32.4721C97.3884 32.3594 97.3246 32.2452 97.2622 32.1282V32.1282Z" fill="#E2E3E4"/>
<path d="M99.8745 17.5343C99.8384 17.4329 99.7878 17.3358 99.7256 17.246C99.6634 17.1562 99.591 17.0751 99.51 17.007C99.429 16.9403 99.3408 16.8867 99.2482 16.852L57.008 1.10726C56.8966 1.06539 56.7896 1.0367 56.684 1.01946C56.5798 1.00237 56.4786 0.996719 56.3802 1.00179C56.2818 1.00686 56.1878 1.02265 56.0981 1.048C56.007 1.07336 55.9202 1.10842 55.8378 1.15231C37.9462 10.6566 20.0532 20.161 2.16162 29.6646C2.23235 29.6269 2.30801 29.5994 2.38814 29.582C2.46828 29.5646 2.55333 29.5588 2.64287 29.5646C2.7324 29.569 2.82657 29.5864 2.92493 29.6153C3.02344 29.6443 3.12614 29.6863 3.23303 29.7428L44.5678 51.2505C44.6589 51.2983 44.7486 51.3664 44.8339 51.4476C44.9178 51.5287 44.9959 51.6243 45.0654 51.7272C45.1348 51.83 45.1941 51.9416 45.2389 52.0531C45.2838 52.1661 45.3156 52.2806 45.3286 52.3892C45.3359 52.4486 45.3388 52.5022 45.3344 52.5529C45.3315 52.6022 45.3228 52.6471 45.3113 52.6877C45.2983 52.7268 45.2809 52.763 45.2592 52.792C45.2375 52.8209 45.2115 52.8456 45.1825 52.8644C63.3634 41.3456 81.5428 29.8283 99.7251 18.3095C99.7584 18.2892 99.7888 18.2632 99.8148 18.2327C99.8408 18.2023 99.8625 18.1661 99.8813 18.127C99.8987 18.0879 99.9132 18.0444 99.9218 17.9966C99.9305 17.9488 99.9349 17.8981 99.9334 17.843C99.9305 17.7402 99.9103 17.6359 99.8741 17.5344L99.8745 17.5343Z" fill="#5FAC87" stroke="#5FAC87" stroke-width="2"/>
<path d="M3.02284 29.6675L44.4755 51.1191C44.5669 51.1668 44.6569 51.2347 44.7424 51.3156C44.8266 51.3965 44.9049 51.4919 44.9745 51.5945C45.0442 51.6971 45.1036 51.8083 45.1486 51.9196C45.1936 52.0323 45.2255 52.1464 45.2386 52.2548C45.2531 52.3646 45.2473 52.4585 45.2255 52.5366C45.2037 52.6131 45.166 52.6724 45.1138 52.7128C45.063 52.7533 44.9992 52.7735 44.9238 52.7721C44.8498 52.7706 44.7657 52.7475 44.6743 52.6998L3.31007 31.1298C3.25045 31.098 3.19228 31.0749 3.13556 31.0604C3.07884 31.046 3.02313 31.0402 2.96859 31.0431C2.91419 31.046 2.86067 31.0575 2.8083 31.0806C2.75579 31.1023 2.70429 31.1341 2.65352 31.176C2.60362 31.2179 2.5556 31.2714 2.5102 31.3364C2.46479 31.4 2.42186 31.4751 2.38196 31.5604C2.34222 31.6456 2.30537 31.7424 2.27215 31.8493C2.23893 31.9548 2.20934 32.0719 2.18396 32.199C2.13246 32.4533 2.09735 32.7467 2.08009 33.0747C2.06268 33.4027 2.06297 33.7653 2.08183 34.1584C2.10069 34.5514 2.13826 34.9733 2.19542 35.4212C2.25257 35.8692 2.32945 36.3417 2.42708 36.8358C2.49975 37.2072 2.58142 37.5742 2.67049 37.9383C2.75956 38.3025 2.85602 38.6608 2.95887 39.0134C3.06158 39.3645 3.17037 39.7098 3.2841 40.0436C3.39768 40.3788 3.51634 40.7039 3.63834 41.0161C3.75961 41.3282 3.88494 41.6273 4.01187 41.9105C4.1388 42.1937 4.26732 42.461 4.39541 42.711C4.5235 42.9595 4.65116 43.1892 4.77591 43.3988C4.90081 43.6068 5.02295 43.7932 5.14016 43.9565C5.21907 44.0649 5.29436 44.1631 5.36674 44.2498C5.43913 44.3365 5.50847 44.4131 5.5752 44.4796C5.64192 44.5475 5.70633 44.6038 5.76856 44.653C5.83079 44.7021 5.89085 44.7426 5.94945 44.7758L46.526 67.4267C46.6145 67.4773 46.7015 67.5452 46.7842 67.6261C46.8669 67.7084 46.9437 67.8024 47.0105 67.9021C47.0772 68.0018 47.1352 68.1087 47.1787 68.2171C47.2237 68.324 47.2542 68.4324 47.2658 68.535C47.2788 68.6375 47.273 68.7257 47.2513 68.7965C47.2295 68.8673 47.1918 68.9207 47.1425 68.9554C47.0917 68.9901 47.0293 69.0046 46.9568 68.9988C46.8828 68.993 46.8016 68.9655 46.7117 68.915L6.21637 46.16C6.08581 46.0863 5.95482 45.9968 5.82412 45.8927C5.69357 45.7887 5.56316 45.6717 5.43405 45.5416C5.30509 45.4116 5.17744 45.27 5.05211 45.1197C4.92692 44.9694 4.80405 44.809 4.68467 44.6429C4.56412 44.4752 4.44604 44.299 4.33028 44.1169C4.21452 43.9348 4.10094 43.7455 3.98968 43.549C3.87827 43.354 3.76918 43.1517 3.66227 42.9436C3.55536 42.7355 3.45048 42.5217 3.34778 42.3035C3.14295 41.8657 2.94596 41.4047 2.75912 40.9279C2.57214 40.4496 2.39516 39.9555 2.23037 39.4483C2.06544 38.9397 1.91284 38.4195 1.77445 37.8906C1.63591 37.3618 1.5116 36.8243 1.40411 36.2839C1.32374 35.8778 1.25571 35.4848 1.19957 35.1062C1.14343 34.7262 1.09933 34.3607 1.06698 34.0095C1.03464 33.6584 1.01418 33.3232 1.00519 33.0039C0.996194 32.6845 0.99895 32.3825 1.01302 32.0993C1.02796 31.8176 1.05364 31.5517 1.09106 31.3075C1.12849 31.0619 1.17767 30.8379 1.23917 30.6356C1.30082 30.4333 1.3748 30.2541 1.46213 30.0995C1.5496 29.9464 1.65027 29.8178 1.76502 29.7166C1.84089 29.6501 1.9243 29.5967 2.0151 29.5577C2.10591 29.5187 2.20412 29.4955 2.30929 29.4883C2.4146 29.4825 2.52673 29.4926 2.64554 29.5215C2.76435 29.5519 2.88982 29.5981 3.02168 29.6675H3.02284Z" fill="#5FAC87" stroke="#5FAC87" stroke-width="2"/>
</svg>
